<svg width="45" height="30" viewBox="0 0 45 30" xmlns="http://www.w3.org/2000/svg"><title>bovine</title><path d="M5.19.016C4.797.032 4.08.05 3.593.06l-.88.02 4.19 2.1-.387.23C3.627 4.15 1.64 6.13.217 8.7L0 9.087l.175.26c.194.295.56.68.82.86.67.47 1.56.665 2.696.592.486-.032.94-.086 1.697-.196 1.54-.23 2.326-.255 2.975-.09.26.064.68.27.875.424.217.17 1.62 1.816 2.485 2.902 1.98 2.49 3.212 4.535 3.947 6.567.358 1 .58 1.915.704 3.006.07.587.06 1.963-.015 2.572-.142 1.16-.446 2.355-.876 3.436-.08.195-.136.36-.13.365.005.005.125.04.265.08.224.06.31.066.684.07.485.006.652-.033.995-.21.218-.115.593-.474.76-.73.41-.63.7-1.61.86-2.91.09-.75.14-1.474.205-3.11.034-.87.12-2.086.17-2.466.15-1.165.474-2.196.896-2.81.116-.165.512-.595.546-.595.01 0-.06.164-.16.37-.55 1.13-.966 2.586-1.026 3.587l-.02.293.17.217c.842 1.1 1.434 2.386 1.705 3.73.14.69.164.98.17 1.815 0 .6-.01.842-.045 1.115-.06.44-.15.886-.256 1.266-.044.16-.075.3-.07.305.032.032.396.092.706.115.566.05 1.89-.08 1.57-2.75-.358-2.29-.494-3.626-.494-4.86 0-1.176.13-1.882.424-2.322.196-.295.337-.37.897-.49.15-.03.745-.185 1.32-.34 2.446-.66 3.447-.87 4.327-.897.516-.016.76.01.907.093.22.135.86 1.164 1.19 1.914.517 1.165.762 2.342.762 3.658.005.635-.026.984-.12 1.55-.156.93-.41 1.71-.84 2.555-.31.615-.66 1.152-1.1 1.69l-.066.08.235.056c1.657.386 3.04-.71 4.192-3.316.41-.936.73-1.842 1.39-3.99.262-.845.512-1.637.55-1.756l.08-.21-.46-.462c-.59-.594-.908-1.005-1.325-1.69-.67-1.115-1.22-2.626-1.43-3.952-.035-.206-.02-.29.02-.125.065.277.652 1.653.974 2.296.783 1.56 1.582 2.676 2.774 3.88.645.653 1.065 1.202 1.466 1.91.57 1.022.94 2.176 1.06 3.332.05.49.05 1.342 0 1.832-.065.646-.24 1.4-.456 1.974-.044.12-.075.22-.07.224.005.005.125.04.266.076.344.09.848.115 1.135.05 1.1-.245 1.62-1.47 1.62-3.827 0-.896-.05-1.652-.218-3.332-.14-1.407-.17-1.756-.17-2.282 0-.706.02-.86.415-3.152.2-1.174.31-2.07.364-3.055.035-.594.02-2-.03-2.506l-.032-.316.265-.294c1.255-1.38 1.8-2.63 1.685-3.876-.15-1.62-1.2-2.486-3.37-2.767-.817-.104-1.902-.115-3.382-.03-.37.02-.88.05-1.126.064-.59.035-7.916.035-10.302 0-5.648-.08-9.644-.288-13.7-.715-.77-.08-1.706-.19-1.776-.206-.056-.017-.056-.022.038-.24.245-.566.326-.946.326-1.512-.006-.474-.034-.68-.185-1.14-.12-.366-.12-.366-.207-.217-.13.23-.42.642-.55.785-.244.27-.466.386-.67.336-.158-.038-.315-.184-.64-.598-.49-.62-.836-.88-1.256-.95C7.695.012 6.325-.023 5.19.016zm36.73 6.158c.208.104.447.456.596.88.164.46.265 1.25.218 1.746-.03.33-.086.516-.28.914-.366.745-.91 1.47-2.197 2.91-.325.364-.76.86-.97 1.094-1.044 1.206-1.45 1.876-1.45 2.415 0 .17-.01.195-.08.294-.045.055-.105.115-.136.125-.174.055-.265-.484-.15-.94.065-.26.304-.745.544-1.11.435-.656.86-1.175 2.126-2.592 1.39-1.55 1.85-2.175 2.05-2.756.11-.32.114-1.206.01-1.735-.086-.408-.294-.946-.474-1.212-.03-.044-.055-.086-.055-.094.01-.016.16.015.25.06z" fill="#FFF" fill-rule="evenodd"/></svg>