<svg width="45" height="30" viewBox="0 0 45 30" xmlns="http://www.w3.org/2000/svg"><title>favorite</title><path d="M28.52 26.17l-5.307-3.942-5.31 3.94c-.325.243-.71.366-1.096.366-.38 0-.76-.12-1.085-.357-.652-.474-.923-1.32-.667-2.088l2.086-6.296-5.367-3.858c-.655-.473-.93-1.314-.683-2.085.248-.764 1.246-.796 2.047-.796h5.76l2.555-6.758c.242-.77.955-1.296 1.76-1.296.803 0 1.518.525 1.758 1.296l2.567 6.758h5.76c.796 0 1.788.032 2.03.797.25.772-.023 1.613-.68 2.086l-5.364 3.858 2.09 6.295c.25.765-.02 1.61-.666 2.087-.325.237-.708.357-1.09.357-.386 0-.77-.123-1.096-.365z" fill="#FFF" fill-rule="evenodd"/></svg>