<svg width="40" height="40" viewBox="0 0 40 40" xmlns="http://www.w3.org/2000/svg"><title>help</title><path d="M20 0C8.96-.01.01 8.95 0 19.99.01 31.05 8.96 40.005 20 40c11.043.004 19.992-8.952 20-20.01C39.992 8.95 31.04-.01 20 0zm-.01 35C11.71 35 4.994 28.284 5 19.99 4.992 11.713 11.71 4.997 19.99 5c8.285-.002 15.002 6.714 15.01 14.99C34.992 28.283 28.275 35 19.99 35zm1.984-10l.005-2.083c-.01-.76.347-1.482 1.306-2.105.96-.624 3.64-1.89 3.644-5.224-.004-3.32-2.817-5.607-5.185-6.1-2.363-.477-4.926-.16-6.74 1.825-1.632 1.758-2 2.602-2.005 5.687h3.684c-.006-1.806.185-3.54 2.548-4.02 1.302-.253 2.513.15 3.237.84.816.803.823 2.6-.496 3.49l-2.054 1.386c-1.194.766-1.918 1.562-1.92 2.804V25h3.974zM18 31v-4h4v4h-4z" fill="#999" fill-rule="evenodd"/></svg>