<svg width="45" height="30" viewBox="0 0 45 30" xmlns="http://www.w3.org/2000/svg"><title>offals</title><path d="M14.675 4c-.7-.01-1.442.122-2.3.413C9.4 5.428 6.88 8.586 5.534 13c-1.678 5.512.72 11.17 5.34 12.59.36.112.897.158 1.462.15 3.267-.058 4.633-2.01 4.6-3.85-.036-2.002-.896-2.582-1.813-3.25 1.613-1.655 1.305-3.647.738-5.488 0 0 3.41-.974 3.625-4.276.16-2.423-1.333-3.915-2.738-4.438-.72-.268-1.378-.427-2.075-.437zm16.65 0c-.697.01-1.354.17-2.074.438-1.404.523-2.896 2.015-2.737 4.438.216 3.302 3.625 4.276 3.625 4.276-.567 1.84-.875 3.833.738 5.487-.917.668-1.777 1.248-1.813 3.25-.033 1.84 1.346 3.792 4.613 3.85.56.008 1.088-.038 1.45-.15 4.62-1.42 7.017-7.078 5.338-12.59C39.12 8.587 36.6 5.43 33.626 4.414c-.857-.29-1.602-.423-2.3-.412zm-11.063 9.214c-.416.104-.837.198-1.237.287-.706.158-1.346.278-1.838.376.146.603.215 1.238.2 1.863h.013c.52-.105 1.22-.232 2.037-.413.413-.094.855-.21 1.288-.313.008 0 .004.002.012 0L20.75 15c.004-.002.01-.015.013-.023.003-.01.012-.025.012-.038l-.425-1.664c-.002-.008-.008-.016-.013-.025-.002 0 .005-.01 0-.01-.002-.005-.01 0-.012 0l-.013-.014c-.004-.002-.004-.01-.012-.012h-.038zm5.438 0c-.008.002-.004.01-.012.012l-.013.013c-.004 0-.01-.005-.012 0-.005 0 .002.01 0 .01l-.013.026-.425 1.663c0 .012.01.026.012.037.003.008.01.02.013.024l.013.014c.008.002.004 0 .012 0 .433.104.875.22 1.288.313.817.18 1.516.308 2.037.412h.013c-.013-.626.056-1.26.2-1.864-.492-.098-1.132-.218-1.838-.375-.4-.088-.82-.182-1.237-.286H25.7zm-8.325 2.825c-.044.628-.188 1.247-.438 1.824.25.046.475.12.625.213.22.137.332.246.4.588.194.94.29 2.78.313 4.325.02 1.262.01 2.16 0 2.512v.013c.002.008.008.02.012.025.01.01.015.02.025.025h1.775c.02-.005.04-.007.05-.025.005-.008.013-.015.013-.025.002-.003.002-.01 0-.013.01-.393.02-1.277 0-2.537-.023-1.588-.102-3.432-.362-4.688-.167-.807-.66-1.44-1.238-1.8-.38-.236-.788-.36-1.175-.438zm11.25 0c-.387.078-.795.2-1.175.437-.577.36-1.07.993-1.238 1.8-.26 1.256-.337 3.1-.362 4.688-.02 1.26-.01 2.144 0 2.537v.013c0 .01.01.017.013.025.01.018.03.02.05.025h1.775c.01-.005.02-.015.025-.025.004-.005.01-.017.012-.025v-.013c-.01-.352-.02-1.25 0-2.512.025-1.544.12-3.386.313-4.325.07-.342.18-.45.4-.588.152-.094.375-.167.625-.213-.25-.577-.392-1.196-.438-1.825z" fill="#FFF" fill-rule="evenodd"/></svg>