<svg width="45" height="30" viewBox="0 0 45 30" xmlns="http://www.w3.org/2000/svg"><title>other</title><path d="M9.663 25.898c3.516-.408 7.896-.742 11.302.528-1.045-.71-2.42-2.49-3.656-2.37-1.242.136-2.53.077-3.757-.154 1.424-.12 2.855-.032 4.278.023-1.403-1.31-3.24-.654-5.09-.572-.635.03-1.23-.02-1.805.335-.403.248-1.528 2.24-1.272 2.21.333-.037-.054.007 0 0zm16.87 3.295c-1.965-.592-3.78-1.59-5.488-2.714-1.257-.308-2.56-.406-3.85-.492-1.58-.088-10.855-1.186-10.158 2.015.433 1.985 8.37 1.456 9.707 1.492 3.557.095 7.118-.08 10.677.05-.292-.122-.587-.24-.886-.352-.316-.095.244.082 0 0zm12.32-2.202c-1.378-4.7-9.064-3.81-12.857-3.777 2.144.923 4.392 1.567 6.73 1.72-2.404.225-4.98-.526-7.052-1.714-.585.063-4.924-3.08-4.76-3.324-.838.885-1.942 1.53-3.197 1.515 5.07-1.004 5.122-7.023 3.462-10.88-.916-2.13-2.58-5.636-5.483-5.345-.82-.116-1.974-.36-2.79.017-1.12.513-.606 1.813-1.353 2.634.164-.152.286-.336.364-.55.006.257.04.512.1.763-.032-.302-.096-1.262.32-1.362 1.067 1.232 2.82 1.407 3.894 2.73 1.367 1.576 2.41 3.7 1.92 5.833-.355.466-1.72.618-2.24 1.138-.72.69-1.255 1.77-1.21 2.777.014 2.047 1.87 3.557 3.285 4.725 2.95 2.437 7.036 5.397 10.953 5.796 1.985.204 10.972 1.383 9.912-2.695zM14.93 5.793c-.345 0-.345-.533 0-.533.344-.003.344.532 0 .532z" fill="#FFF" fill-rule="evenodd"/></svg>