<svg width="45" height="30" viewBox="0 0 45 30" xmlns="http://www.w3.org/2000/svg"><title>pig</title><path d="M15.384 25.375c-.85.86-.928 2.012-1.587 2.885-.437.58-.91.664-1.433.856-.375.135-.806.09-1.058-.223-.317-.395.13-.674.304-.965.598-1.014 1.543-1.825 1.7-3.104.235-1.923-.44-2.758-2.34-2.77-1.68-.01-3.297-.012-4.872-.945-.856-.51-2.125-.52-3.183-.433-1.053.086-.803-1.24-1.68-1.21-1.545.055-.956-1.28-1.162-2.01-.144-.503-.185-1.195.976-1.1 1.2.098 2.163-.963 3.224-1.528.512 1.343 1.873 1.103 2.873 1.53.338.145.637.024.872-.39-3.333-.22-4.632-2.802-6.343-5.212 1.486-.223 2.43.854 3.74.832.025-.685-.752-.808-.793-1.346.06-.05.157-.17.188-.152 2.56 1.318 5.088.87 7.737.135 6.75-1.875 13.67-2.472 20.663-2.14.16.007.325.022.488.026 1.25.03 2.204.823 3.293 1.22 1.11.404 1.777-1.265 3.063-1.32 2.152-.096 3.287 1.146 2.792 3.236-.272 1.143-1.003 2.04-1.49 3.064-.17.35-.36.705-.083 1.066.287.372.573.255.98.062 1.016-.478 1.684.736 2.745.512-1.35 2.12-2.357 2.12-4.51.07-.374 2.267-1.153 4.316-2.542 6.103-.123.156-.25.42-.203.58.72 2.353-.73 4.267-1.367 6.306-.316 1.005-1.715 1.18-2.54.78-.815-.395-.02-1.126.368-1.557 1.203-1.34 1.347-2.784.575-4.362-.06-.13-.235-.208-.376-.327-.815.63-1.092 1.6-1.09 2.46.002 1.145-.983 1.713-1.22 2.717-.12.522-1.105.554-1.763.49-.683-.066-1.034-.362-.524-1.052.324-.436.642-.88.99-1.294.867-1.026.775-2.15.45-3.342-.15-.555-.536-.603-.846-.404-2.388 1.53-4.975.6-7.478.67-.38.01-.762.025-1.14.054-2.777.216-2.803.21-3.515 2.842-.35 1.303-1.043 2.31-2.267 2.86-.412.184-1.068.333-1.368-.112-.304-.447.067-.962.423-1.29.85-.797 1.327-1.61.33-2.77zm25.052-10.95c.484-1.05.91-1.85 1.224-2.698.255-.692.22-1.4-.517-1.85-.78-.48-1.303.07-1.866.484-.776.57-.296 1.07.03 1.64.39.694.682 1.447 1.13 2.425z" fill="#FFF" fill-rule="evenodd"/></svg>