<svg width="45" height="30" viewBox="0 0 45 30" xmlns="http://www.w3.org/2000/svg"><title>poultry</title><path d="M34.522 11.546l1.452-1.24-.303-1.697-1.85.557 1.065-1.77-1.03-1.09-3.872 5.39L25.22 9.99l-5.893-.21-3.388-6.295 1.118-.78-.112-1.066-.99-.33-.985.64.27-1.18-.71-.77-1.094.297-.35 1.22-.704-1.08-.726.224-.32 1.776L8 4.37l3.094.215-.635.968.786.272.05.606.676-.212.162 9.838 2.587 5.058 4.488 2.228.365 1.05 2.745 1.41.564 1.373-1.857 1.897-4.058.546.544.382h6.942l-.584-.382-1.716-.304 1.86-1.735-.123-1.978 1.65-2.06 3.778-1.277 3.157-2.98 3.72-6.437V11.82l-1.673-.274zm-5.358 8.13l-5.293 1.298-4.35.12-2.783-1.663-1.175-3.2 1.782-2.95.167.1-1.283 2.795 1.112 2.82 2.428 1.507 4.176.062 5.007-1.213.31-.748-1.53.035.32-1.166-1.542.19-.176-.962-1.95.407 2.13-.744.225.995 1.623-.17-.238 1.138 1.643-.084-.6 1.437z" fill="#FFF" fill-rule="evenodd"/></svg>