<svg width="30" height="30" viewBox="0 0 30 30" xmlns="http://www.w3.org/2000/svg"><title>share-twitter</title><path d="M26.93 9.072c.01.264.017.53.017.796 0 8.134-6.192 17.512-17.512 17.512-3.476 0-6.71-1.02-9.435-2.765.482.057.97.086 1.468.086 2.884 0 5.538-.983 7.645-2.634-2.694-.05-4.967-1.83-5.75-4.274.376.072.76.11 1.158.11.562 0 1.106-.075 1.623-.216-2.816-.565-4.938-3.052-4.938-6.035v-.076c.83.46 1.78.738 2.79.77-1.653-1.104-2.74-2.988-2.74-5.123 0-1.127.304-2.184.834-3.093 3.035 3.723 7.57 6.173 12.684 6.43-.104-.45-.16-.92-.16-1.402 0-3.4 2.757-6.155 6.155-6.155 1.77 0 3.37.748 4.492 1.943 1.402-.275 2.72-.788 3.908-1.493-.46 1.437-1.434 2.643-2.706 3.405 1.246-.15 2.433-.48 3.536-.97-.825 1.235-1.87 2.32-3.07 3.187z" fill="#FFF" fill-rule="evenodd"/></svg>