<svg width="45" height="30" viewBox="0 0 45 30" xmlns="http://www.w3.org/2000/svg"><title>sheep</title><path d="M10.346 2.09c-.22-.132-.496-.09-.74-.055-.6.118-1.062.57-1.412 1.048-.244-.153-.5-.31-.794-.338-.237-.006-.435.167-.558.357-.228.364-.304.808-.577 1.145-.067.083-.165.13-.26.17-.386.164-.736.397-1.074.645-.142.09-.157.277-.21.423-.193.63-.124 1.296-.062 1.94.015.327.042.666-.07.976-.167.383-.49.664-.696 1.02-.478.852-.86 1.788-.892 2.775v.036c.03.507.08 1.06.425 1.46.283.34.74.44 1.158.49.298.042.605.05.904.032.765-.11 1.525-.252 2.29-.365.136-.02.288-.023.4.067.156.112.198.315.214.494.03.47-.052.962.127 1.412.092.242.306.4.506.548.437.302.925.517 1.377.792.065.046.05.14.05.208-.03.367-.133.73-.102 1.098.008.24.108.475.287.636.307.283.574.608.827.937.042.055.09.112.103.184.106.51.154 1.032.295 1.53.082.258.167.537.377.718.255.196.584-.137.84.065.477.352.623.965.952 1.433.187.238.44.415.722.527.133 1.748.25 3.496.358 5.246h2.067c-.064-1.112-.127-2.227-.194-3.34-.08-.69.04-1.377.125-2.06.007-.146.173-.283.315-.216.414.12.852.183 1.28.114.35-.09.616-.35.845-.61.706.676 1.73.91 2.685.81.188-.29.317-.653.642-.82.215-.13.48-.062.69.04.487.223.78.723 1.28.923.44.204.944.075 1.366-.117.45-.217.87-.496 1.275-.79.21.094.336.292.45.477.388.046.786.18 1.17.042.618-.16 1.05-.66 1.576-.99.355.265.645.632 1.074.784.28.095.588.16.88.082.33-.073.643-.2.97-.28.11-.032.223-.016.323.032.573.26.88.892 1.475 1.113.123.058.252.016.375-.02.138 1.526.317 3.05.465 4.574.725.003 1.45 0 2.172.003.032-.262.12-.525.076-.79-.11-.914-.255-1.822-.36-2.735-.074-.758.332-1.458.837-1.992-.063-.295.022-.6.21-.83.496-.66 1.346-.938 1.82-1.617.143-.214.278-.504.13-.747-.115-.29-.375-.552-.308-.884.015-.105.065-.2.138-.278.428-.475.788-1.006 1.14-1.537.16-.236.148-.535.175-.808.056-.478-.294-.882-.32-1.347.08-.266.337-.428.478-.662.316-.554.54-1.175.57-1.82v-.18c-.035-.3-.03-.614-.158-.895-.21-.403-.628-.65-.83-1.055.09-.388.298-.733.386-1.12.04-.584-.17-1.18-.563-1.617-.264-.014-.527-.062-.787-.118-.254-.05-.44-.252-.58-.46-.28-.417-.333-.938-.59-1.367-.103-.177-.244-.342-.432-.43-.277-.13-.56-.252-.848-.35-.152-.047-.313-.097-.473-.068-.358.054-.708.143-1.067.2-.25.035-.53-.034-.695-.232-.152-.168-.194-.402-.23-.616-.37-.124-.77-.26-1.162-.157-.545.124-1.087.268-1.635.383-.3-.146-.44-.483-.74-.633-.353-.192-.778-.134-1.15-.026-.45.13-.795.468-1.216.663-.295-.175-.522-.527-.9-.51-.678.177-1.234.72-1.96.748-.49 0-.712-.542-1.164-.638-.298-.09-.597.05-.84.217-.3.206-.575.444-.853.673-.42-.248-.9-.434-1.396-.41-.58.103-1.14.302-1.717.404-.246-.01-.388-.26-.596-.36-.425-.2-.896-.303-1.365-.303-.527.068-1.017.287-1.527.418-.25-.07-.455-.265-.722-.275-.41-.01-.82-.003-1.23-.004-.16-.13-.308-.285-.504-.362-.348-.148-.698-.335-1.08-.358-.4.03-.79.115-1.187.16-.094-.56-.338-1.08-.592-1.583-.496-.092-.986-.232-1.465-.39-.298-.194-.516-.483-.787-.708z" fill="#FFF" fill-rule="evenodd"/></svg>