<?xml version="1.0" encoding="UTF-8" standalone="no"?>
<svg width="45px" height="30px" viewBox="0 0 45 30" version="1.1" xmlns="http://www.w3.org/2000/svg" xmlns:xlink="http://www.w3.org/1999/xlink" xmlns:sketch="http://www.bohemiancoding.com/sketch/ns">
    <!-- Generator: Sketch 3.4 (15575) - http://www.bohemiancoding.com/sketch -->
    <title>bovine</title>
    <desc>Created with Sketch.</desc>
    <defs></defs>
    <g id="Page-1" stroke="none" stroke-width="1" fill="none" fill-rule="evenodd" sketch:type="MSPage">
        <g id="Icons" sketch:type="MSArtboardGroup" transform="translate(-445.000000, -20.000000)" fill="#FFFFFF">
            <path d="M450.188918,20.0156303 C449.798132,20.0316352 449.079246,20.0496407 448.594431,20.0603106 L447.714162,20.0809836 L451.902775,22.1802914 L451.517324,22.4096948 C448.625774,24.1502264 446.641168,26.1294976 445.216066,28.7009496 L445,29.0864006 L445.17472,29.3464801 C445.369446,29.6412368 445.734224,30.0266878 445.994971,30.2067428 C446.664508,30.6755527 447.555447,30.8709457 448.691127,30.7975899 C449.175942,30.766247 449.631415,30.7115637 450.386979,30.6021969 C451.926115,30.3734604 452.713022,30.3467856 453.361887,30.5115026 C453.621967,30.576189 454.041428,30.7822519 454.236821,30.9356321 C454.453554,31.1050172 455.857316,32.75152 456.722247,33.8378518 C458.702185,36.3279457 459.933894,38.373237 460.668786,40.404524 C461.028229,41.4048296 461.24963,42.3197757 461.374334,43.4107755 C461.445023,43.9969546 461.434353,45.3727081 461.358996,45.9822276 C461.218287,47.1412482 460.913527,48.3369467 460.484062,49.4179436 C460.402704,49.6133366 460.348021,49.7773867 460.353356,49.7827216 C460.358691,49.7880566 460.478727,49.822067 460.619437,49.8634129 C460.843506,49.9234313 460.928865,49.9287662 461.304313,49.9341012 C461.789128,49.9387693 461.955845,49.9000908 462.299283,49.7227033 C462.518017,49.6080016 462.893465,49.2485585 463.060183,48.9931471 C463.468974,48.3629547 463.761063,47.3833221 463.919778,46.0835919 C464.01114,45.3333627 464.060488,44.6091415 464.125174,42.9733086 C464.159185,42.1030428 464.245211,40.8866713 464.29456,40.5065552 C464.445939,39.3421996 464.768704,38.3105512 465.190833,37.6956967 C465.305535,37.5316466 465.701656,37.1015153 465.735666,37.1015153 C465.745669,37.1015153 465.675648,37.2655654 465.576284,37.4716283 C465.026783,38.6019735 464.609989,40.0584183 464.549971,41.0587238 L464.529298,41.3528137 L464.698683,41.5695465 C465.542274,42.6685488 466.133788,43.9556086 466.404537,45.2993523 C466.545247,45.99023 466.569254,46.2789849 466.573922,47.1152403 C466.573922,47.7140898 466.563919,47.9568306 466.529909,48.2302475 C466.469891,48.6703819 466.378529,49.1158513 466.274498,49.4959674 C466.230484,49.6553494 466.199141,49.796059 466.204476,49.8007271 C466.235819,49.83207 466.59993,49.8920884 466.910025,49.9154288 C467.475531,49.9647772 468.801269,49.8347375 468.481172,47.1645887 C468.121728,44.8752228 467.986354,43.5388146 467.986354,42.3037708 C467.986354,41.1287452 468.116393,40.4231964 468.410483,39.983062 C468.605876,39.6883053 468.746586,39.6129489 469.306757,39.4929123 C469.458137,39.4615694 470.051651,39.3081892 470.62716,39.1521415 C473.073241,38.4926068 474.073546,38.2818758 474.954482,38.2558678 C475.469973,38.2398629 475.714714,38.2658709 475.860759,38.3492297 C476.079492,38.4852712 476.720355,39.5142521 477.051122,40.2644813 C477.56728,41.4288369 477.812021,42.605863 477.812021,43.9215982 C477.817356,44.5571256 477.786013,44.9058988 477.691985,45.4714049 C477.535937,46.401689 477.283193,47.183261 476.851061,48.026852 C476.540966,48.6417065 476.191526,49.1785371 475.751392,49.7173683 L475.686039,49.7980596 L475.920777,49.852743 C477.577283,50.2388609 478.961039,49.1418592 480.112057,46.5370637 C480.520849,45.6014446 480.841613,44.6951678 481.503149,42.5458447 C481.763895,41.7022537 482.013971,40.9100118 482.05265,40.790642 L482.133341,40.5792441 L481.672534,40.1184367 C481.08102,39.5242552 480.763589,39.1127962 480.346795,38.4279204 C479.677258,37.3129131 479.127757,35.801785 478.916359,34.4760467 C478.882348,34.2699838 478.895686,34.186625 478.937032,34.3506751 C479.002385,34.6267594 479.588564,36.0025129 479.911329,36.6460428 C480.692901,38.2065194 481.492479,39.3215266 482.683509,40.5272282 C483.32904,41.1787605 483.748501,41.7282617 484.149957,42.436478 C484.720131,43.4581233 485.090244,44.611809 485.210281,45.7681622 C485.259629,46.2583119 485.259629,47.1099053 485.210281,47.600055 C485.144928,48.2455855 484.970208,49.0011496 484.754142,49.5739912 C484.710128,49.6940279 484.678785,49.7933916 484.68412,49.7980596 C484.688788,49.8033946 484.808825,49.837405 484.949535,49.8740829 C485.29364,49.9647772 485.798461,49.9887846 486.085215,49.9234313 C487.184884,49.6786899 487.70571,48.4543159 487.70571,46.0969293 C487.70571,45.2006555 487.656361,44.4450914 487.486976,42.765245 C487.346267,41.3581486 487.317591,41.0093754 487.317591,40.4832147 C487.317591,39.7769991 487.338264,39.6236189 487.731718,37.3309186 C487.932446,36.1558931 488.041812,35.2602862 488.096496,34.2753188 C488.130506,33.6811373 488.117169,32.2747077 488.065153,31.76922 L488.03381,31.4544572 L488.299224,31.1597005 C489.554941,29.7792789 490.099774,28.528897 489.985073,27.2838501 C489.833693,25.6633552 488.784039,24.7984244 486.614043,24.5170051 C485.798461,24.4129733 484.712796,24.4023034 483.23301,24.4856622 C482.862897,24.507002 482.352741,24.5356774 482.107333,24.5510155 C481.516486,24.5850258 474.190915,24.5850258 471.804853,24.5510155 C466.157128,24.4703241 462.161241,24.2615937 458.105336,23.8347967 C457.334434,23.7541054 456.399482,23.6447387 456.328793,23.6287338 C456.27411,23.6133958 456.27411,23.6080608 456.368139,23.3893273 C456.61288,22.8238213 456.693571,22.4437052 456.693571,21.8781991 C456.688236,21.4040543 456.659561,21.1986583 456.508848,20.737184 C456.388812,20.3724059 456.388812,20.3724059 456.302785,20.521118 C456.172746,20.7505214 455.883324,21.1619804 455.753284,21.3053575 C455.508543,21.5761069 455.287142,21.6908086 455.083746,21.6414602 C454.925031,21.6021148 454.768317,21.4560702 454.442884,21.0419437 C453.953401,20.4224212 453.606629,20.1616749 453.187167,20.0916535 C452.695017,20.0129628 451.324598,19.9769518 450.188918,20.0156303 L450.188918,20.0156303 Z M486.92147,26.1741779 C487.127533,26.2782096 487.36694,26.6296503 487.515652,27.0544467 C487.679702,27.5152541 487.781066,28.3048286 487.734385,28.7996464 C487.703042,29.1304141 487.648359,29.315804 487.452966,29.7139256 C487.088188,30.4588198 486.544022,31.183041 485.256962,32.6241478 C484.931529,32.988259 484.496063,33.4837437 484.287999,33.7178151 C483.243013,34.9241836 482.836889,35.5937214 482.836889,36.1325526 C482.836889,36.3019377 482.826219,36.3279457 482.756198,36.4273093 C482.712185,36.4819927 482.652166,36.542011 482.620823,36.5520141 C482.446103,36.6066975 482.354742,36.0678662 482.469444,35.6117269 C482.534797,35.3509806 482.774204,34.8668327 483.014277,34.5020547 C483.449076,33.8458543 483.873873,33.3270291 485.139593,31.9099297 C486.530684,30.360123 486.989491,29.7345986 487.189552,29.1537545 C487.298919,28.8336568 487.304254,27.948053 487.200222,27.4192248 C487.114196,27.0124339 486.906132,26.4736026 486.726077,26.2075214 C486.694734,26.1635079 486.671394,26.122162 486.671394,26.1141595 C486.679396,26.0981546 486.830109,26.1294976 486.92147,26.1741779 L486.92147,26.1741779 Z" id="Page-1" sketch:type="MSShapeGroup"></path>
        </g>
    </g>
</svg>