<?xml version="1.0" encoding="UTF-8" standalone="no"?>
<svg width="45px" height="30px" viewBox="0 0 45 30" version="1.1" xmlns="http://www.w3.org/2000/svg" xmlns:xlink="http://www.w3.org/1999/xlink" xmlns:sketch="http://www.bohemiancoding.com/sketch/ns">
    <!-- Generator: Sketch 3.4 (15575) - http://www.bohemiancoding.com/sketch -->
    <title>favorite</title>
    <desc>Created with Sketch.</desc>
    <defs></defs>
    <g id="Page-1" stroke="none" stroke-width="1" fill="none" fill-rule="evenodd" sketch:type="MSPage">
        <g id="Icons" sketch:type="MSArtboardGroup" transform="translate(-380.000000, -20.000000)" fill="#FFFFFF">
            <path d="M408.520684,46.169376 L403.212992,42.22816 L397.904377,46.169376 C397.577607,46.410656 397.192684,46.53408 396.806838,46.53408 C396.42653,46.53408 396.046223,46.414368 395.722223,46.1768 C395.069607,45.702592 394.799146,44.857184 395.054838,44.0888 L397.140992,37.794176 L391.7733,33.935552 C391.117915,33.4632 390.841915,32.621504 391.090223,31.851264 C391.337607,31.085664 392.336404,31.0541119 393.136712,31.0541119 L398.896712,31.0541119 L401.451761,24.296416 C401.693607,23.525248 402.407146,23 403.211146,23 C404.015146,23 404.729607,23.525248 404.969607,24.296416 L407.536711,31.0541119 L413.296711,31.0541119 C414.093326,31.0541119 415.084684,31.085664 415.32653,31.851264 C415.576684,32.622432 415.304377,33.4632 414.648069,33.935552 L409.283146,37.794176 L411.372069,44.0888 C411.624069,44.855328 411.353607,45.700736 410.70653,46.1768 C410.381607,46.414368 409.99853,46.53408 409.618223,46.53408 C409.23053,46.53408 408.84653,46.410656 408.520684,46.169376 Z" id="star3-2" sketch:type="MSShapeGroup"></path>
        </g>
    </g>
</svg>