<?xml version="1.0" encoding="UTF-8" standalone="no"?>
<svg width="30px" height="30px" viewBox="0 0 30 30" version="1.1" xmlns="http://www.w3.org/2000/svg" xmlns:xlink="http://www.w3.org/1999/xlink" xmlns:sketch="http://www.bohemiancoding.com/sketch/ns">
    <!-- Generator: Sketch 3.4 (15575) - http://www.bohemiancoding.com/sketch -->
    <title>gitd</title>
    <desc>Created with Sketch.</desc>
    <defs></defs>
    <g id="Page-1" stroke="none" stroke-width="1" fill="none" fill-rule="evenodd" sketch:type="MSPage">
        <g id="Other-icons" sketch:type="MSArtboardGroup" transform="translate(-270.000000, -10.000000)" fill="#FFFFFF">
            <path d="M284,40 C276.268013,40 270,33.7319729 270,25.9999687 C270,18.2820682 275.909085,12.0228088 284,12 L284,25.9999685 L298,25.9999685 C298.000058,33.7742688 291.731987,40 284,40 Z M279,23 C280.10457,23 281,22.1045696 281,21 C281,19.8954304 280.10457,19 279,19 C277.89543,19 277,19.8954304 277,21 C277,22.1045696 277.89543,23 279,23 Z M286.042169,10 C286.028108,10 286.014051,10.0000209 286,10.0000627 L286,24 L300,24 C299.977255,16.2640923 293.736837,10 286.042169,10 Z" id="gitd" sketch:type="MSShapeGroup"></path>
        </g>
    </g>
</svg>