<?xml version="1.0" encoding="UTF-8" standalone="no"?>
<svg width="40px" height="40px" viewBox="0 0 40 40" version="1.1" xmlns="http://www.w3.org/2000/svg" xmlns:xlink="http://www.w3.org/1999/xlink" xmlns:sketch="http://www.bohemiancoding.com/sketch/ns">
    <!-- Generator: Sketch 3.4 (15575) - http://www.bohemiancoding.com/sketch -->
    <title>help</title>
    <desc>Created with Sketch.</desc>
    <defs></defs>
    <g id="Page-1" stroke="none" stroke-width="1" fill="none" fill-rule="evenodd" sketch:type="MSPage">
        <g id="Other-icons" sketch:type="MSArtboardGroup" transform="translate(-120.000000, -10.000000)" fill="#999999">
            <path d="M140,10.0000061 C128.961137,9.99147276 120.010227,18.9498711 120,29.991469 C120.010227,41.0480002 128.961137,50.0042651 140,49.9999985 C151.043169,50.0042651 159.991926,41.0480002 160,29.991469 C159.991926,18.9498711 151.041016,9.99147276 140,10.0000061 Z M139.989768,45 C131.708895,45 124.994233,38.2840166 125.000007,29.9885661 C124.992134,21.713905 131.708895,14.9979216 139.989768,15.0000005 C148.274841,14.9979216 154.991602,21.713905 155,29.9906451 C154.991602,38.2824574 148.274841,45 139.989768,45 Z M141.974379,34.9999999 L141.978684,32.9168017 C141.970072,32.1562685 142.327484,31.435202 143.286145,30.8122688 C144.247497,30.1877356 146.925934,28.9226692 146.93024,25.5877365 C146.925934,22.2666704 144.112929,19.9813375 141.745075,19.487471 C139.382065,19.010671 136.818818,19.329071 135.004306,21.3125373 C133.372807,23.0709369 133.006459,23.9146672 133,26.9999999 L136.68425,27 C136.677791,25.1936032 136.869415,23.4602702 139.232425,22.9792036 C140.533965,22.726937 141.745075,23.1290703 142.468511,23.8208035 C143.286145,24.6229366 143.292604,26.4186696 141.974378,27.3104028 L139.920336,28.6960025 C138.725912,29.4624024 138.002153,30.2584002 138,31.4999999 L138,34.9999999 L141.974379,34.9999999 Z M138,41 L138,37 L142,37 L142,41 L138,41 Z" id="help" sketch:type="MSShapeGroup"></path>
        </g>
    </g>
</svg>