<?xml version="1.0" encoding="UTF-8" standalone="no"?>
<svg width="45px" height="30px" viewBox="0 0 45 30" version="1.1" xmlns="http://www.w3.org/2000/svg" xmlns:xlink="http://www.w3.org/1999/xlink" xmlns:sketch="http://www.bohemiancoding.com/sketch/ns">
    <!-- Generator: Sketch 3.4 (15575) - http://www.bohemiancoding.com/sketch -->
    <title>offals</title>
    <desc>Created with Sketch.</desc>
    <defs></defs>
    <g id="Page-1" stroke="none" stroke-width="1" fill="none" fill-rule="evenodd" sketch:type="MSPage">
        <g id="Icons" sketch:type="MSArtboardGroup" transform="translate(-260.000000, -20.000000)" fill="#FFFFFF">
            <path d="M274.674602,24.0005441 C273.976418,23.99041 273.232898,24.1216194 272.37417,24.4133737 C269.401156,25.4278466 266.879909,28.5864735 265.536345,33.0011907 C263.856758,38.5119866 266.254797,44.1710598 270.874329,45.5898284 C271.236488,45.7023699 271.771993,45.7482398 272.336834,45.7397059 C275.603735,45.6815684 276.970233,43.7294281 276.937164,41.8892959 C276.901429,39.8875521 276.0411,39.3083105 275.124234,38.6394624 C276.73715,36.9849436 276.428861,34.9933338 275.861887,33.1516015 C275.861887,33.1516015 279.270665,32.1781982 279.487214,28.8760943 C279.645626,26.4529869 278.153785,24.9611464 276.749418,24.4384422 C276.028833,24.1696229 275.372252,24.0112115 274.674602,24.0005441 L274.674602,24.0005441 L274.674602,24.0005441 Z M291.325398,24.0005441 C290.627748,24.0112115 289.971167,24.1696229 289.250582,24.4384422 C287.846215,24.9611464 286.354374,26.4529869 286.512786,28.8760943 C286.729335,32.1781982 290.138113,33.1516015 290.138113,33.1516015 C289.571139,34.9933338 289.26285,36.9849436 290.875766,38.6394624 C289.9589,39.3083105 289.098571,39.8875521 289.062836,41.8892959 C289.029767,43.7294281 290.409066,45.6815684 293.675967,45.7397059 C294.236007,45.7482398 294.763512,45.7023699 295.125671,45.5898284 C299.745203,44.1710598 302.143242,38.5119866 300.463655,33.0011907 C299.120091,28.5864735 296.600977,25.4278466 293.62583,24.4133737 C292.769235,24.1216194 292.023582,23.99041 291.325398,24.0005441 L291.325398,24.0005441 L291.325398,24.0005441 Z M280.262203,33.214006 C279.84564,33.3180135 279.42481,33.4118869 279.024781,33.5014933 C278.318597,33.6577712 277.678551,33.7783132 277.187316,33.8764536 C277.332926,34.4786302 277.401731,35.1138758 277.38733,35.7389874 L277.399598,35.7389874 C277.920702,35.6349799 278.620485,35.5080375 279.437077,35.3266911 C279.849907,35.2328177 280.291539,35.1181428 280.724637,35.0141353 C280.73317,35.0141353 280.728904,35.0162688 280.737437,35.0141353 L280.749705,35.0013344 C280.753972,34.9976008 280.760372,34.9847999 280.762506,34.9767993 C280.76624,34.9661319 280.774773,34.9517308 280.774773,34.9389299 L280.349676,33.2764105 C280.347543,33.2678765 280.341676,33.2598759 280.337409,33.251342 C280.335275,33.2492085 280.341676,33.2412079 280.337409,33.2390745 C280.335275,33.2348075 280.326741,33.2412079 280.324608,33.2390745 C280.320874,33.236941 280.314474,33.228407 280.31234,33.2262735 C280.308073,33.22414 280.308073,33.2161395 280.300073,33.214006 L280.262203,33.214006 L280.262203,33.214006 Z M285.699927,33.214006 C285.691927,33.2161395 285.696194,33.22414 285.68766,33.2262735 C285.685526,33.228407 285.677526,33.236941 285.675392,33.2390745 C285.671125,33.2412079 285.664725,33.2348075 285.662591,33.2390745 C285.658324,33.2412079 285.664725,33.2492085 285.662591,33.251342 C285.658324,33.2598759 285.652457,33.2678765 285.650324,33.2764105 L285.225227,34.9389299 C285.225227,34.9517308 285.23376,34.9661319 285.237494,34.9767993 C285.239628,34.9847999 285.248162,34.9976008 285.250295,35.0013344 C285.252428,35.0034679 285.260429,35.0098683 285.262563,35.0141353 C285.271096,35.0162688 285.26683,35.0141353 285.275363,35.0141353 C285.708461,35.1181428 286.150093,35.2328177 286.562923,35.3266911 C287.379515,35.5080375 288.079298,35.6349799 288.600402,35.7389874 L288.61267,35.7389874 C288.600402,35.1138758 288.669207,34.4786302 288.812684,33.8764536 C288.321449,33.7783132 287.681403,33.6577712 286.975219,33.5014933 C286.57519,33.4118869 286.15436,33.3180135 285.737797,33.214006 L285.699927,33.214006 L285.699927,33.214006 Z M277.374529,36.0392756 C277.330793,36.6681208 277.187316,37.2873653 276.937164,37.8644734 C277.187316,37.9103434 277.411865,37.9828819 277.562276,38.0767553 C277.780958,38.2143652 277.8935,38.3226397 277.962305,38.6645309 C278.155919,39.6037984 278.251926,41.4455307 278.274861,42.9896416 C278.295662,44.2521323 278.284995,45.1503302 278.274861,45.5023555 L278.274861,45.514623 C278.276994,45.523157 278.282861,45.5354245 278.287128,45.5396915 C278.295662,45.5503589 278.301529,45.560493 278.312197,45.56476 L280.087257,45.56476 C280.108059,45.560493 280.126727,45.5583595 280.137394,45.5396915 C280.141661,45.5316909 280.149662,45.5252905 280.149662,45.514623 C280.151795,45.5124895 280.151795,45.504489 280.149662,45.5023555 C280.160329,45.1087272 280.170463,44.2249304 280.149662,42.9645732 C280.126727,41.3772591 280.047788,39.53286 279.787503,38.2767697 C279.620557,37.4703118 279.126655,36.8371996 278.549547,36.4766404 C278.17032,36.2414235 277.76229,36.1182146 277.374529,36.0392756 L277.374529,36.0392756 L277.374529,36.0392756 Z M288.625471,36.0392756 C288.23771,36.1182146 287.82968,36.2414235 287.450453,36.4766404 C286.873345,36.8371996 286.379443,37.4703118 286.212497,38.2767697 C285.952212,39.53286 285.875407,41.3772591 285.850338,42.9645732 C285.829537,44.2249304 285.839671,45.1087272 285.850338,45.5023555 L285.850338,45.514623 C285.850338,45.5252905 285.860472,45.5316909 285.862606,45.5396915 C285.873273,45.5583595 285.894075,45.560493 285.912743,45.56476 L287.687803,45.56476 C287.698471,45.560493 287.708605,45.5503589 287.712872,45.5396915 C287.717139,45.5354245 287.723006,45.523157 287.725139,45.514623 L287.725139,45.5023555 C287.715005,45.1503302 287.704338,44.2521323 287.725139,42.9896416 C287.750208,41.4455307 287.844081,39.6037984 288.037695,38.6645309 C288.108634,38.3226397 288.219042,38.2143652 288.437724,38.0767553 C288.589735,37.9828819 288.812684,37.9103434 289.062836,37.8644734 C288.812684,37.2873653 288.671341,36.6681208 288.625471,36.0392756 L288.625471,36.0392756 L288.625471,36.0392756 Z" id="Page-1" sketch:type="MSShapeGroup"></path>
        </g>
    </g>
</svg>