<?xml version="1.0" encoding="UTF-8" standalone="no"?>
<svg width="45px" height="30px" viewBox="0 0 45 30" version="1.1" xmlns="http://www.w3.org/2000/svg" xmlns:xlink="http://www.w3.org/1999/xlink" xmlns:sketch="http://www.bohemiancoding.com/sketch/ns">
    <!-- Generator: Sketch 3.4 (15575) - http://www.bohemiancoding.com/sketch -->
    <title>other</title>
    <desc>Created with Sketch.</desc>
    <defs></defs>
    <g id="Page-1" stroke="none" stroke-width="1" fill="none" fill-rule="evenodd" sketch:type="MSPage">
        <g id="Icons" sketch:type="MSArtboardGroup" transform="translate(-320.000000, -20.000000)" fill="#FFFFFF">
            <path d="M329.663199,45.8982807 C333.17912,45.4903259 337.559483,45.1560868 340.964602,46.4257375 C339.920219,45.7155939 338.544802,43.936343 337.309033,44.0558449 C336.06777,44.1918299 334.779805,44.1327657 333.553193,43.9020034 C334.976685,43.78067 336.407503,43.869953 337.830996,43.9253543 C336.427191,42.614496 334.59025,43.270612 332.740946,43.3530271 C332.104518,43.3818724 331.50884,43.3315076 330.934681,43.687724 C330.532221,43.936343 329.407254,45.9266682 329.663199,45.8982807 C329.995607,45.8607361 329.609171,45.9051487 329.663199,45.8982807 Z M346.534032,49.1925963 C344.568432,48.600581 342.751636,47.6042737 341.045185,46.4793073 C339.787897,46.1716242 338.483906,46.0736418 337.196399,45.9875638 C335.615402,45.9001122 326.340038,44.8017018 327.037362,48.0030714 C327.470499,49.9883601 335.406159,49.4590718 336.743574,49.4947851 C340.30116,49.5895624 343.861951,49.4142014 347.421368,49.5451499 C347.127879,49.4233586 346.833016,49.3052303 346.534032,49.1925963 C346.21765,49.0978189 346.777615,49.2750114 346.534032,49.1925963 Z M358.851888,46.990739 C357.47464,42.2907877 349.78943,43.1813289 345.996045,43.2133792 C348.140211,44.1364286 350.388313,44.7801823 352.726155,44.9321924 C350.322381,45.1579182 347.746908,44.406567 345.67371,43.2188736 C345.089021,43.2834321 340.749864,40.1392952 340.914695,39.8957127 C340.075892,40.7812174 338.972445,41.4249711 337.71653,41.4107774 C342.787349,40.4057708 342.839088,34.3871776 341.179339,30.5292342 C340.263615,28.4010926 338.600203,24.8938713 335.69736,25.1850714 C334.878245,25.0692324 333.72306,24.8256499 332.905776,25.2015545 C331.787678,25.7148175 332.300941,27.015145 331.55371,27.8356333 C331.718083,27.6836232 331.839874,27.4995628 331.918168,27.2848256 C331.923663,27.5426018 331.957545,27.7980886 332.016609,28.048539 C331.98639,27.7481817 331.921831,26.7875877 332.336654,26.6877738 C333.404846,27.9198799 335.159372,28.0952409 336.232142,29.4170879 C337.59886,30.9944218 338.643242,33.1175269 338.15333,35.2511628 C337.797114,35.7158925 336.432686,35.8679026 335.912097,36.3884915 C335.193254,37.078947 334.65664,38.1572115 334.702884,39.1645075 C334.715704,41.2120654 336.571876,42.7216357 337.986669,43.8896411 C340.938046,46.3272972 345.022631,49.2873737 348.939638,49.6861713 C350.924927,49.8899198 359.912296,51.0689139 358.851888,46.990739 Z M334.930441,25.7917383 C334.585213,25.7917383 334.585213,25.2587872 334.930441,25.2587872 C335.273837,25.2569557 335.273837,25.7917383 334.930441,25.7917383 L334.930441,25.7917383 Z" id="Fill-1" sketch:type="MSShapeGroup"></path>
        </g>
    </g>
</svg>