<?xml version="1.0" encoding="UTF-8" standalone="no"?>
<svg width="45px" height="30px" viewBox="0 0 45 30" version="1.1" xmlns="http://www.w3.org/2000/svg" xmlns:xlink="http://www.w3.org/1999/xlink" xmlns:sketch="http://www.bohemiancoding.com/sketch/ns">
    <!-- Generator: Sketch 3.4 (15575) - http://www.bohemiancoding.com/sketch -->
    <title>pig</title>
    <desc>Created with Sketch.</desc>
    <defs></defs>
    <g id="Page-1" stroke="none" stroke-width="1" fill="none" fill-rule="evenodd" sketch:type="MSPage">
        <g id="Icons" sketch:type="MSArtboardGroup" transform="translate(-505.000000, -20.000000)" fill="#FFFFFF">
            <path d="M520.384048,45.3750066 C519.535222,46.2355275 519.456433,47.3871974 518.797193,48.260029 C518.359546,48.839865 517.886198,48.9241935 517.364223,49.1162411 C516.98936,49.2510438 516.558484,49.205494 516.306114,48.8928012 C515.989113,48.4982419 516.435993,48.2194036 516.609574,47.9282545 C517.207876,46.9138494 518.152726,46.103187 518.309072,44.8241009 C518.544823,42.9005474 517.871425,42.0664946 515.969415,42.0541839 C514.288999,42.0449508 512.673214,42.0424887 511.098055,41.1093344 C510.242458,40.5996697 508.972605,40.5898211 507.915112,40.6766118 C506.861928,40.7634026 507.111836,39.4381512 506.234081,39.4670814 C504.690313,39.5224798 505.279382,38.1855332 505.072562,37.4573528 C504.928526,36.9544589 504.887901,36.2619797 506.048804,36.3561569 C507.249101,36.4546428 508.213032,35.3940724 509.273603,34.8290093 C509.78573,36.1733424 511.146682,35.9326673 512.14693,36.3604656 C512.485475,36.5051169 512.784011,36.3844716 513.019146,35.9714462 C509.686628,35.7498528 508.38846,33.1676746 506.676652,30.7584624 C508.162558,30.5350224 509.107408,31.6122124 510.417886,31.590053 C510.441892,30.9049602 509.665084,30.7824684 509.624459,30.2438734 C509.684782,30.1933993 509.780805,30.0752162 509.812198,30.0924513 C512.372832,31.4097007 514.899612,30.9628207 517.549499,30.2272539 C524.301326,28.3517123 531.218732,27.7552569 538.21308,28.0870314 C538.374351,28.0944178 538.538084,28.1085752 538.701201,28.1134995 C539.951357,28.1424297 540.903593,28.935857 541.993093,29.3322629 C543.101676,29.7366708 543.770149,28.0679497 545.056006,28.0125514 C547.207924,27.9165276 548.342974,29.159297 547.848082,31.2490455 C547.576015,32.393329 546.845372,33.2901665 546.357251,34.3144203 C546.188594,34.6652764 545.996547,35.0192103 546.275385,35.379915 C546.56161,35.752315 546.847834,35.6347474 547.254089,35.4420843 C548.270956,34.9638119 548.93943,36.1782666 550,35.9542111 C548.650743,38.075352 547.643108,38.0728899 545.491191,36.0243824 C545.116329,38.2914055 544.337059,40.339913 542.947791,42.1268173 C542.824684,42.2825482 542.697268,42.5472291 542.74528,42.7084998 C543.464227,45.0598516 542.014637,46.974172 541.377556,49.0128309 C541.062401,50.018003 539.663285,50.1934311 538.838466,49.7921009 C538.023494,49.3975416 538.819384,48.666899 539.205941,48.2360231 C540.408701,46.8947677 540.552736,45.4519487 539.780853,43.8743271 C539.718684,43.7426022 539.545102,43.66566 539.403529,43.5474769 C538.588558,44.1777869 538.311566,45.1466423 538.314028,46.0071632 C538.31649,47.1520622 537.331015,47.7195874 537.095265,48.724144 C536.972773,49.2461195 535.989144,49.2775118 535.33052,49.2147271 C534.647273,49.1476335 534.296417,48.8515602 534.806082,48.1615431 C535.13047,47.7263583 535.448087,47.2819405 535.796481,46.8682996 C536.662542,45.8415837 536.570827,44.7182285 536.246439,43.5259331 C536.097479,42.9707186 535.710306,42.9227067 535.400075,43.1221408 C533.012407,44.6511349 530.425304,43.722905 527.921915,43.7930762 C527.542129,43.8023093 527.15988,43.8170822 526.782556,43.8460124 C524.005252,44.0620659 523.978784,44.0546795 523.267223,46.6879472 C522.916367,47.9910393 522.223888,48.9986735 520.999585,49.5465016 C520.588406,49.7317782 519.932243,49.8807382 519.631861,49.4363204 C519.328401,48.9888249 519.698955,48.4742359 520.054735,48.1449236 C520.906023,47.3490341 521.381833,46.5365251 520.384048,45.3750066 L520.384048,45.3750066 Z M545.436408,34.425217 C545.919605,33.3744951 546.347403,32.5736813 546.660096,31.7273178 C546.914928,31.0348386 546.878611,30.3257398 546.143044,29.8757822 C545.363774,29.3975099 544.839952,29.9478 544.277352,30.361441 C543.500544,30.9314283 543.981278,31.4293979 544.306282,32.0012318 C544.697763,32.6937111 544.988912,33.446513 545.436408,34.425217 L545.436408,34.425217 Z" id="Page-1" sketch:type="MSShapeGroup"></path>
        </g>
    </g>
</svg>