<?xml version="1.0" encoding="UTF-8" standalone="no"?>
<svg width="45px" height="30px" viewBox="0 0 45 30" version="1.1" xmlns="http://www.w3.org/2000/svg" xmlns:xlink="http://www.w3.org/1999/xlink" xmlns:sketch="http://www.bohemiancoding.com/sketch/ns">
    <!-- Generator: Sketch 3.4 (15575) - http://www.bohemiancoding.com/sketch -->
    <title>poultry</title>
    <desc>Created with Sketch.</desc>
    <defs></defs>
    <g id="Page-1" stroke="none" stroke-width="1" fill="none" fill-rule="evenodd" sketch:type="MSPage">
        <g id="Icons" sketch:type="MSArtboardGroup" transform="translate(-140.000000, -20.000000)" fill="#FFFFFF">
            <path d="M174.522309,31.5464347 L175.974325,30.3052958 L175.670519,28.6088938 L173.820427,29.1673616 L174.88509,27.3976887 L173.855275,26.3071126 L169.982635,31.6978912 L165.220021,29.9894263 L159.326622,29.7798892 L155.939179,23.4852862 L157.057902,22.7047715 L156.946208,21.6387681 L155.954816,21.3086019 L154.970572,21.9510633 L155.240871,20.7711324 L154.529159,20 L153.43635,20.2966581 L153.085632,21.518139 L152.382409,20.4360517 L151.656401,20.6612259 L151.336957,22.4362602 L148,24.3698993 L151.094359,24.5847978 L150.459046,25.5529576 L151.246262,25.82549 L151.296747,26.4308691 L151.97227,26.2182046 L152.134449,36.0557276 L154.720826,41.1136594 L159.20778,43.3421695 L159.572794,44.3911956 L162.317776,45.8030023 L162.881605,47.1745994 L161.024811,49.071603 L156.967207,49.618008 L157.511378,50 L164.452463,50 L163.867636,49.618008 L162.152022,49.3142015 L164.010603,47.5793769 L163.888634,45.6019539 L165.541252,43.5427712 L169.317835,42.2654435 L172.475189,39.2845654 L176.195925,32.848335 L176.195925,31.8203074 L174.522309,31.5464347 Z M169.164145,39.67728 L163.87121,40.973819 L159.520075,41.0944481 L156.736671,39.4311074 L155.562102,36.2304164 L157.343837,33.2790254 L157.511378,33.3804432 L156.226902,36.1745696 L157.338923,38.996396 L159.768035,40.5024722 L163.944481,40.5636802 L168.95148,39.350688 L169.260201,38.6018943 L167.729553,38.6371895 L168.050783,37.4711086 L166.508072,37.6614344 L166.332043,36.6981891 L164.380533,37.1047537 L166.511646,36.3613213 L166.73682,37.3545005 L168.359951,37.1851731 L168.122267,38.3231072 L169.76461,38.2391136 L169.164145,39.67728 Z" id="Page-1" sketch:type="MSShapeGroup"></path>
        </g>
    </g>
</svg>