<?xml version="1.0" encoding="UTF-8" standalone="no"?>
<svg width="30px" height="30px" viewBox="0 0 30 30" version="1.1" xmlns="http://www.w3.org/2000/svg" xmlns:xlink="http://www.w3.org/1999/xlink" xmlns:sketch="http://www.bohemiancoding.com/sketch/ns">
    <!-- Generator: Sketch 3.4 (15575) - http://www.bohemiancoding.com/sketch -->
    <title>share-twitter</title>
    <desc>Created with Sketch.</desc>
    <defs></defs>
    <g id="Page-1" stroke="none" stroke-width="1" fill="none" fill-rule="evenodd" sketch:type="MSPage">
        <g id="Other-icons" sketch:type="MSArtboardGroup" transform="translate(-171.000000, -10.000000)" fill="#FFFFFF">
            <path d="M197.928775,19.0718829 C197.940693,19.3361305 197.946681,19.601611 197.946681,19.8682656 C197.946681,28.0018787 191.755208,37.3801737 180.435419,37.3801737 C176.959338,37.3801737 173.723729,36.3611678 171,34.6147617 C171.482115,34.6718852 171.971393,34.7010634 172.468421,34.7010634 C175.352248,34.7010634 178.005703,33.7171652 180.112815,32.0659846 C177.418851,32.0166106 175.146298,30.2369755 174.363007,27.7917604 C174.739212,27.8637959 175.124341,27.9024849 175.521329,27.9024849 C176.081996,27.9024849 176.625991,27.8269269 177.142685,27.6864371 C174.327312,27.1208968 172.205288,24.6335289 172.205288,21.651482 C172.205288,21.6252979 172.205288,21.599701 172.205934,21.574104 C173.035664,22.0347907 173.984454,22.311602 174.99389,22.3437156 C173.342181,21.2402279 172.255895,19.3563262 172.255895,17.2206819 C172.255895,16.0927714 172.558832,15.0356635 173.089147,14.1267363 C176.124795,17.8503908 180.659098,20.3003025 185.774441,20.5574464 C185.669705,20.1068576 185.614871,19.6372471 185.614871,19.1545446 C185.614871,15.7558425 188.370714,13 191.769416,13 C193.540832,13 195.139527,13.7475959 196.262095,14.9433736 C197.664468,14.6677952 198.981068,14.1553274 200.170271,13.4499431 C199.710758,14.8874242 198.735784,16.0932998 197.464448,16.8551619 C198.7096,16.7063354 199.896512,16.3754535 201,15.8861757 C200.175085,17.120114 199.131128,18.203993 197.928775,19.0718829 L197.928775,19.0718829 Z" id="share-twitter" sketch:type="MSShapeGroup"></path>
        </g>
    </g>
</svg>