<?xml version="1.0" encoding="UTF-8" standalone="no"?>
<svg width="45px" height="30px" viewBox="0 0 45 30" version="1.1" xmlns="http://www.w3.org/2000/svg" xmlns:xlink="http://www.w3.org/1999/xlink" xmlns:sketch="http://www.bohemiancoding.com/sketch/ns">
    <!-- Generator: Sketch 3.4 (15575) - http://www.bohemiancoding.com/sketch -->
    <title>sheep</title>
    <desc>Created with Sketch.</desc>
    <defs></defs>
    <g id="Page-1" stroke="none" stroke-width="1" fill="none" fill-rule="evenodd" sketch:type="MSPage">
        <g id="Icons" sketch:type="MSArtboardGroup" transform="translate(-200.000000, -20.000000)" fill="#FFFFFF">
            <path d="M210.3456,22.0887924 C210.1248,21.9575924 209.850133,22.0013258 209.6064,22.0349258 C209.0064,22.1533258 208.544,22.6055924 208.1936,23.0829258 C207.949867,22.9303924 207.693867,22.7725258 207.4,22.7453258 C207.162667,22.7389258 206.9648,22.9117258 206.8416,23.1015924 C206.6144,23.4658591 206.5376,23.9095924 206.264533,24.2471924 C206.197867,24.3303924 206.099733,24.3762591 206.0064,24.4162591 C205.618667,24.5805258 205.2688,24.8141258 204.9312,25.0621258 C204.787733,25.1517258 204.7728,25.3389258 204.718933,25.4850591 C204.526933,26.1159924 204.595733,26.7805258 204.658133,27.4263924 C204.673067,27.7517258 204.700267,28.0909258 204.589333,28.4013258 C204.4208,28.7826591 204.098133,29.0637258 203.891733,29.4199924 C203.4144,30.2722591 203.033067,31.2077258 203,32.1954591 L203,32.2306591 C203.029333,32.7367924 203.081067,33.2887924 203.425067,33.6909258 C203.708267,34.0285258 204.1648,34.1303924 204.583467,34.1805258 C204.881067,34.2221258 205.187733,34.2306591 205.487467,34.2119924 C206.252267,34.1015924 207.012267,33.9597258 207.777067,33.8471924 C207.912533,33.8263924 208.064533,33.8242591 208.177067,33.9138591 C208.333333,34.0263924 208.374933,34.2285258 208.391467,34.4077258 C208.418667,34.8786591 208.3376,35.3703924 208.5168,35.8199924 C208.608533,36.0621258 208.822933,36.2199924 209.022933,36.3682591 C209.460267,36.6701258 209.947733,36.8850591 210.4,37.1597258 C210.464533,37.2055924 210.450133,37.2994591 210.450133,37.3682591 C210.4208,37.7346591 210.3168,38.0973258 210.347733,38.4658591 C210.356267,38.7058591 210.456,38.9410591 210.6352,39.1015924 C210.941867,39.3847924 211.208533,39.7095924 211.4624,40.0391924 C211.504,40.0951924 211.552,40.1517258 211.5648,40.2242591 C211.670933,40.7325258 211.718933,41.2557258 211.860267,41.7554591 C211.941867,42.0119924 212.0272,42.2909258 212.237333,42.4722591 C212.491733,42.6679924 212.8208,42.3346591 213.077333,42.5367924 C213.554133,42.8887924 213.699733,43.5015924 214.029333,43.9703924 C214.216533,44.2077258 214.470933,44.3847924 214.752,44.4973258 C214.885333,46.2450591 215.002133,47.9933258 215.1104,49.7431924 L217.177067,49.7431924 C217.112533,48.6306591 217.050133,47.5159924 216.983467,46.4034591 C216.901867,45.7117258 217.022933,45.0263924 217.108267,44.3431924 C217.114667,44.1970591 217.281067,44.0599924 217.422933,44.1266591 C217.837333,44.2471924 218.2752,44.3095924 218.704,44.2413258 C219.052267,44.1495924 219.318933,43.8909258 219.547733,43.6285258 C220.2544,44.3058591 221.278933,44.5389258 222.233067,44.4391924 C222.4208,44.1495924 222.549867,43.7869258 222.8752,43.6199924 C223.0896,43.4909258 223.354133,43.5575924 223.5664,43.6599924 C224.052267,43.8829258 224.344,44.3826591 224.845867,44.5826591 C225.285333,44.7869258 225.789333,44.6578591 226.210667,44.4658591 C226.660267,44.2493258 227.081067,43.9703924 227.485333,43.6765258 C227.693867,43.7703924 227.8208,43.9682591 227.935467,44.1533258 C228.322667,44.1991924 228.721067,44.3325258 229.104,44.1954591 C229.722667,44.0349258 230.154133,43.5346591 230.681067,43.2055924 C231.0352,43.4701258 231.3248,43.8370591 231.754133,43.9890591 C232.0336,44.0850591 232.341867,44.1495924 232.633067,44.0722591 C232.962667,43.9991924 233.277333,43.8722591 233.604267,43.7911924 C233.712533,43.7597258 233.8272,43.7762591 233.926933,43.8242591 C234.499733,44.0829258 234.8064,44.7159924 235.402133,44.9367924 C235.5248,44.9954591 235.6544,44.9533258 235.777067,44.9181258 C235.914667,46.4429258 236.093867,47.9661258 236.2416,49.4909258 C236.966933,49.4930591 237.691733,49.4909258 238.4144,49.4930591 C238.445867,49.2306591 238.533333,48.9682591 238.4896,48.7015924 C238.381333,47.7890591 238.2352,46.8807924 238.129067,45.9682591 C238.056,45.2098591 238.4624,44.5095924 238.966933,43.9762591 C238.904,43.6807924 238.989333,43.3762591 239.177067,43.1453258 C239.673067,42.4850591 240.522667,42.2077258 240.995733,41.5287924 C241.139733,41.3159924 241.2752,41.0263924 241.126933,40.7826591 C241.012267,40.4930591 240.752,40.2306591 240.818667,39.8994591 C240.8352,39.7954591 240.885333,39.6994591 240.9584,39.6221258 C241.3856,39.1474591 241.7456,38.6162591 242.098133,38.0850591 C242.258133,37.8493258 242.245867,37.5495924 242.273067,37.2765258 C242.329067,36.7991924 241.9792,36.3954591 241.954133,35.9303924 C242.0336,35.6637258 242.2896,35.5015924 242.431467,35.2679924 C242.7456,34.7138591 242.968533,34.0930591 243,33.4471924 L243,33.2679924 C242.9648,32.9682591 242.968533,32.6535924 242.8416,32.3725258 C242.633067,31.9703924 242.2144,31.7223924 242.012267,31.3181258 C242.101867,30.9303924 242.3104,30.5847924 242.397867,30.1991924 C242.437333,29.6141258 242.2272,29.0183924 241.8352,28.5805258 C241.570667,28.5661258 241.308267,28.5181258 241.048,28.4621258 C240.7936,28.4119924 240.608533,28.2098591 240.4688,28.0034591 C240.187733,27.5847924 240.135467,27.0637258 239.877333,26.6349258 C239.774933,26.4578591 239.6336,26.2930591 239.445867,26.2055924 C239.168533,26.0743924 238.887467,25.9533258 238.597867,25.8535924 C238.445867,25.8077258 238.285333,25.7575924 238.1248,25.7869258 C237.766933,25.8413258 237.416533,25.9303924 237.058133,25.9869258 C236.808533,26.0221258 236.529067,25.9533258 236.362667,25.7554591 C236.210667,25.5869258 236.168533,25.3533258 236.133333,25.1389258 C235.762667,25.0162591 235.362667,24.8807924 234.970667,24.9826591 C234.425067,25.1074591 233.8832,25.2514591 233.335467,25.3661258 C233.0352,25.2199924 232.893867,24.8829258 232.595733,24.7325258 C232.2416,24.5410591 231.816533,24.5991924 231.445867,24.7074591 C230.9936,24.8370591 230.650133,25.1746591 230.229333,25.3703924 C229.935467,25.1954591 229.708267,24.8429258 229.3312,24.8599924 C228.652267,25.0370591 228.096,25.5805258 227.370667,25.6077258 C226.878933,25.6077258 226.658133,25.0658591 226.2064,24.9703924 C225.908267,24.8786591 225.608533,25.0199924 225.3648,25.1869258 C225.066667,25.3933258 224.791467,25.6306591 224.512533,25.8599924 C224.091733,25.6119924 223.612267,25.4263924 223.1168,25.4493258 C222.5376,25.5533258 221.977067,25.7517258 221.4,25.8535924 C221.154133,25.8429258 221.012267,25.5933258 220.804267,25.4930591 C220.3792,25.2951924 219.908267,25.1911924 219.439467,25.1911924 C218.912533,25.2578591 218.422933,25.4765258 217.912533,25.6077258 C217.6624,25.5389258 217.458133,25.3431924 217.191467,25.3325258 C216.781333,25.3223924 216.368533,25.3303924 215.960533,25.3287924 C215.8,25.1991924 215.652267,25.0450591 215.456,24.9682591 C215.108267,24.8199924 214.7584,24.6327924 214.374933,24.6098591 C213.977067,24.6413258 213.5856,24.7245258 213.189333,24.7703924 C213.096,24.2098591 212.852267,23.6887924 212.597867,23.1869258 C212.101867,23.0951924 211.612267,22.9554591 211.133333,22.7970591 C210.8352,22.6034591 210.616533,22.3138591 210.3456,22.0887924 L210.3456,22.0887924 L210.3456,22.0887924 Z" id="Page-1" sketch:type="MSShapeGroup"></path>
        </g>
    </g>
</svg>